
 <svg xmlns="http://www.w3.org/2000/svg" viewBox="20 80 285 285">
        <g id="freepik--Character--inject-13">
          <path
            d="M73.09,276.16l-17,31.28,1.4-75.95a26.61,26.61,0,0,1,4.71-13.44,27.79,27.79,0,0,1,4.09-4.89c2-1.69,4.67-3.83,6.5-4.55,2.27-.9,2.34-4.05.23-4.6s-8.43,1.77-13.93,7.41-4.26-6.55-3.88-11,.89-18.25-.39-19.41c-1.87-1.71-4.1,0-4.37,4.48s-2,17.75-4.37,17.5S46,180.12,46,180.12s1.26-4.78-1.43-5.16c-4.86-.69-5.45,23.49-5.45,25.8,0,1.6-2.55,1.42-2.46-.3s2.74-22.54-2.2-23.28c-3.79-.57-.67,19.89-3.61,24s-.78-15.8-4.43-16.2c-1.35-.15-2.39-.07-2,11.47.22,6.21,3,15.49,2.5,27.47l-.12,3.1h0C23.93,249.43,11,367,55.51,363.81c0,0,33.77-4.69,52.54-66.15Z"
            style="fill:#ffbe9d"
          ></path>
          <path
            d="M35,218.77c0,.11.75.2,1.86.78a7,7,0,0,1,3.29,3.62l.35.89.39-.87a11.18,11.18,0,0,1,2.31-3.33,13.16,13.16,0,0,1,6.86-3.69c2-.41,3.3-.18,3.32-.34a6.26,6.26,0,0,0-3.42-.26,12.56,12.56,0,0,0-7.38,3.69,11.57,11.57,0,0,0-2.42,3.61h.74a7,7,0,0,0-3.83-3.77A3.36,3.36,0,0,0,35,218.77Z"
            style="fill:#eb996e"
          ></path>
          <polyline
            points="276.11 290.77 295.02 326.39 312.29 359.61 273.24 359.61 249.04 309.74"
            style="fill:#ffbe9d"
          ></polyline>
          <path
            d="M128,359.61c3.72-12.67,1.28-14.67-2.72-27.25l-8.6-27-18.82,27.8h0L57.85,301h0l13.27-29.93c24.79-56.18,65-52.19,65-52.19l51.24-9.78s32.78-3,54,16.26c6.92,6.28,38.35,62.86,38.35,62.86l-38.62,27.06-9.47-16.15L229,321.08c-2.06,12-1.93,27.27,2.62,38.53"
            style="fill:#455a64"
          ></path>
          <path
            d="M123.54,238c0,.14-8.43,2-18.88,4.15s-19,3.78-19,3.64,8.42-2,18.88-4.15S123.51,237.84,123.54,238Z"
            style="fill:#fafafa"
          ></path>
          <path
            d="M236.21,221.82c0,.15-8.27,1.8-18.54,3.69s-18.61,3.32-18.64,3.17,8.28-1.79,18.55-3.68S236.19,221.68,236.21,221.82Z"
            style="fill:#fafafa"
          ></path>
          <path
            d="M252,240.11c0,.14-12.87,3-28.81,6.47s-28.88,6.1-28.91,6,12.86-3,28.8-6.47S251.93,240,252,240.11Z"
            style="fill:#fafafa"
          ></path>
          <path
            d="M267.79,268.3l-.54.11-1.58.28-6.11,1-22.47,3.68-74.18,11.9c-29,4.59-55.23,8.68-74.25,11.54-9.5,1.44-17.2,2.56-22.53,3.3-2.66.36-4.73.63-6.14.78a6.79,6.79,0,0,1-2.14.12,12.32,12.32,0,0,0,2.13-.22l6.12-.88,22.51-3.46,74.22-11.7L237,273l22.5-3.52,6.12-.93,1.6-.23Z"
            style="fill:#fafafa"
          ></path>
          <path
            d="M230.06,312.08c0,.14-23.82,3.37-53.23,7.2s-53.27,6.82-53.29,6.68,23.81-3.36,53.23-7.2S230,311.94,230.06,312.08Z"
            style="fill:#fafafa"
          ></path>
          <path
            d="M225.51,349.52c0,.15-21.32.13-47.6,0s-47.61-.4-47.61-.55,21.31-.13,47.61,0S225.51,349.38,225.51,349.52Z"
            style="fill:#fafafa"
          ></path>
          <path
            d="M138.19,261.14a3.47,3.47,0,0,1-.69.15l-2,.33-7.3,1.16c-6.17,1-14.68,2.41-24,4.16s-17.82,3.5-23.93,4.81L73,273.3l-2,.41a3.21,3.21,0,0,1-.7.11,3.51,3.51,0,0,1,.67-.21L73,273.1c1.7-.42,4.16-1,7.2-1.71,6.09-1.41,14.53-3.21,23.91-5s17.9-3.11,24.08-4c3.1-.45,5.6-.79,7.34-1l2-.23A3.32,3.32,0,0,1,138.19,261.14Z"
            style="fill:#fafafa"
          ></path>
          <path
            d="M182.18,99.77c-1.23,14.82,18.63,25.34,16.86,40.1-.49,4.1-2.62,8.56-.45,12.08,2.6,4.23,8.93,3.34,13.55,5.17,5.69,2.25,8.6,9.1,7.74,15.15s-4.78,11.28-9.39,15.31a46,46,0,0,1-26,11.17c-4.46.4-9.12.08-13.1-2s-7.13-6.09-7.15-10.57"
            style="fill:#263238"
          ></path>
          <path
            d="M184.14,217.6c-2.64-12.65-5.19-26-5.19-26s15.71-6.16,14.58-28.11c-1.07-20.94-14.32-67-14.32-67h0c-25.45-4.59-51.86,7.65-64.6,30h0l23.13,102.34c2.68,11.88,15,19,27.73,16.07h0C178.3,241.84,186.65,229.65,184.14,217.6Z"
            style="fill:#ffbe9d"
          ></path>
          <path
            d="M180.93,134.3a2.79,2.79,0,0,1-2.05,3.3,2.66,2.66,0,0,1-3.33-1.86,2.79,2.79,0,0,1,2-3.31A2.67,2.67,0,0,1,180.93,134.3Z"
            style="fill:#263238"
          ></path>
          <path
            d="M184,131.55c-.26.43-2.65-.66-5.58,0s-4.77,2.55-5.16,2.26c-.19-.13,0-.84.81-1.72a7.61,7.61,0,0,1,4-2.25,7.32,7.32,0,0,1,4.53.47C183.66,130.78,184.1,131.36,184,131.55Z"
            style="fill:#263238"
          ></path>
          <path
            d="M151,141.17a2.79,2.79,0,0,1-2,3.31,2.67,2.67,0,0,1-3.33-1.87,2.78,2.78,0,0,1,2-3.3A2.66,2.66,0,0,1,151,141.17Z"
            style="fill:#263238"
          ></path>
          <path
            d="M154,138.39c-.26.42-2.65-.67-5.58,0s-4.76,2.55-5.16,2.26c-.19-.12,0-.84.81-1.72a7.72,7.72,0,0,1,4-2.25,7.41,7.41,0,0,1,4.54.47C153.71,137.62,154.16,138.19,154,138.39Z"
            style="fill:#263238"
          ></path>
          <path
            d="M169.58,157.34c-.05-.17,1.71-.87,4.58-1.87.73-.24,1.41-.53,1.43-1.07a3.94,3.94,0,0,0-1-2.11l-3.42-5.23c-4.8-7.47-8.44-13.67-8.13-13.86s4.43,5.71,9.22,13.17l3.34,5.28a4.49,4.49,0,0,1,1,2.86,1.91,1.91,0,0,1-1,1.35,5.19,5.19,0,0,1-1.23.45C171.47,157.1,169.63,157.5,169.58,157.34Z"
            style="fill:#263238"
          ></path>
          <path
            d="M179,191.6a55.27,55.27,0,0,1-30-1.57s10,13.13,30.83,6.64Z"
            style="fill:#eb996e"
          ></path>
          <path
            d="M169.84,164.66a5.39,5.39,0,0,0-5.15-.95,4.87,4.87,0,0,0-2.95,2.49,3.11,3.11,0,0,0,.5,3.54,3.62,3.62,0,0,0,4,.16,11.39,11.39,0,0,0,3.28-3,3.36,3.36,0,0,0,.65-1,1,1,0,0,0-.24-1.1"
            style="fill:#FF5E81"
          ></path>
          <path
            d="M161.38,161.19c.48-.13,1.16,3.05,4.36,4.74s6.51.61,6.63,1c.09.19-.62.78-2.05,1.12a8.07,8.07,0,0,1-5.5-.7,7,7,0,0,1-3.44-4C161,162.08,161.16,161.22,161.38,161.19Z"
            style="fill:#263238"
          ></path>
          <path
            d="M127.38,148.2a12.9,12.9,0,0,0-6.75,1.89,9,9,0,0,0-4,5.6,9.42,9.42,0,0,0,1.38,6.8,15.93,15.93,0,0,0,5.08,4.89,10.76,10.76,0,0,0,4.7,1.86,5.16,5.16,0,0,0,4.58-1.73"
            style="fill:#ffbe9d"
          ></path>
          <path
            d="M129,162.24c.28,0-.42,1.61-2.61,1.49a4.52,4.52,0,0,1-3-1.7,10.27,10.27,0,0,1-1.93-3.53,6.05,6.05,0,0,1,.11-4.2,4,4,0,0,1,2.61-2.39c2.13-.5,3.1.84,2.87.93s-1.13-.38-2.45.25-2.22,2.66-1.44,4.89,2.1,4.23,3.46,4.5S128.86,162.08,129,162.24Z"
            style="fill:#eb996e"
          ></path>
          <path
            d="M173,91.8a15.78,15.78,0,0,1-3.24,18.63c-5.08,4.57-12.44,5.22-19,7.13s-13.59,6.74-13.29,13.57c.18,4.14,3.12,8.12,2.06,12.12-1.23,4.69-7.22,6.69-8.91,11.23-2.71,7.3,7.21,13.87,6.77,21.64-.26,4.61-4.16,8.37-4.59,13-.62,6.54,5.8,13.49,2.23,19-2.74,4.24-9.12,3.63-13.8,1.79s-9.8-4.46-14.49-2.62c-2.82,1.1-4.81,3.62-7.32,5.32a14,14,0,0,1-21.61-14.23c.76-4,3.18-7.43,5.13-11s3.5-7.74,2.33-11.63c-.91-3-3.25-5.26-5.11-7.76s-3.31-5.79-2.11-8.66c2.1-5.05,10.15-4.61,13.07-9.23,4-6.35-5.28-14.43-2.9-21.55,2.7-8.06,17-6.62,19.72-14.68,1-2.93,0-6.16.27-9.24.71-7,8.1-11.55,15.07-12.76s14.25-.31,21.09-2.11c3.74-1,7.24-2.77,10.92-4s7.76-1.84,11.4-.49,6.55,5.16,5.82,9"
            style="fill:#263238"
          ></path>
          <path
            d="M169.85,106.82a26.5,26.5,0,0,0,19.38,13c-.13-5.36-.41-10.76-1.86-15.91S183.2,93.77,179,90.5s-10.14-4.63-15.12-2.68"
            style="fill:#263238"
          ></path>
          <path
            d="M195.6,209.61c1.81.24,11.93,59.6-26.92,66.19-36.77,6.25-48.14-54.74-48.14-54.74S145.31,202.89,195.6,209.61Z"
            style="fill:#ffbe9d"
          ></path>
          <path
            d="M173.34,128.34c.23.43,2.23-.21,4.72-.49s4.57-.14,4.69-.61-2-1.43-4.89-1.09S173.11,128,173.34,128.34Z"
            style="fill:#263238"
          ></path>
          <path
            d="M143.65,132.94c.09-.08.08-.25,0-.52l0,.45a20.42,20.42,0,0,1,4.52-1.66c2.76-.6,5.1.06,5.29-.39.08-.21-.42-.68-1.44-1a7.84,7.84,0,0,0-4.19-.24,6.86,6.86,0,0,0-4.6,2.87l-.18.36.15.08C143.4,133,143.57,133,143.65,132.94Z"
            style="fill:#263238"
          ></path>
          <path
            d="M126.87,131.21a45,45,0,0,1-6.78-.43,42.89,42.89,0,0,1-6.72-.95,45.06,45.06,0,0,1,6.78.43A44.89,44.89,0,0,1,126.87,131.21Z"
            style="fill:#FF5E81"
          ></path>
          <path
            d="M123.57,135a16.12,16.12,0,0,1-5.13.28,16.08,16.08,0,0,1-5.06-.83c0-.14,2.29.16,5.09.31S123.56,134.84,123.57,135Z"
            style="fill:#FF5E81"
          ></path>
          <path
            d="M173.33,103.91a2.58,2.58,0,0,1-.2.62,5.71,5.71,0,0,1-1,1.58,9.69,9.69,0,0,1-6.2,2.74,18.58,18.58,0,0,1-4.75-.08c-1.69-.21-3.48-.52-5.36-.66a13.25,13.25,0,0,0-5.79.63,11.66,11.66,0,0,0-4.84,3.89c-1.37,1.7-2.52,3.52-3.87,5.13a16.24,16.24,0,0,1-2.21,2.18,11.41,11.41,0,0,1-2.58,1.5,26.75,26.75,0,0,1-5.28,1.37,28.14,28.14,0,0,0-4.55,1.09,9.49,9.49,0,0,0-5.19,4,6.52,6.52,0,0,0-.67,2.36,2.48,2.48,0,0,1,0-.65,5.37,5.37,0,0,1,.51-1.8,9.51,9.51,0,0,1,5.24-4.31,28.32,28.32,0,0,1,4.6-1.17,25.83,25.83,0,0,0,5.17-1.39,11.74,11.74,0,0,0,4.59-3.56c1.32-1.57,2.46-3.4,3.85-5.13a12.26,12.26,0,0,1,5.07-4,13.72,13.72,0,0,1,6-.63c3.83.34,7.18,1.25,10,.86A9.63,9.63,0,0,0,172,106,8,8,0,0,0,173.33,103.91Z"
            style="fill:#455a64"
          ></path>
          <path
            d="M89.88,213.52a7,7,0,0,0,.89-.25,3.51,3.51,0,0,0,1.78-1.85,5.41,5.41,0,0,0,.08-4.07c-.48-1.56-1.41-3.22-2.12-5.2a26.56,26.56,0,0,1-1.43-14.53,19.43,19.43,0,0,1,3.66-7.89,16.77,16.77,0,0,1,3.36-3.2,19.88,19.88,0,0,1,4.22-2.19,13.2,13.2,0,0,0,4-2.28,5,5,0,0,0,1.54-3.93c-.17-2.91-1.76-5.58-1.71-8.46a8.73,8.73,0,0,1,1.06-4,14.7,14.7,0,0,1,2.28-3.1,51.86,51.86,0,0,1,5.14-4.53c3.2-2.64,5.19-5.51,5.72-7.77a7.86,7.86,0,0,0,0-3.56.74.74,0,0,1,.08.23c0,.15.11.38.17.68a7,7,0,0,1-.09,2.7,10.91,10.91,0,0,1-1.81,3.87,23.15,23.15,0,0,1-3.86,4.13,53.72,53.72,0,0,0-5.06,4.54,14.54,14.54,0,0,0-2.2,3,8.34,8.34,0,0,0-1,3.76,13.91,13.91,0,0,0,.77,4.08,19.1,19.1,0,0,1,1,4.36,5.48,5.48,0,0,1-1.69,4.33,13.54,13.54,0,0,1-4.15,2.38A19.87,19.87,0,0,0,96.4,177a16.29,16.29,0,0,0-3.26,3.1,19,19,0,0,0-3.59,7.67,26.56,26.56,0,0,0,1.3,14.3c.68,2,1.59,3.63,2.06,5.25a7.49,7.49,0,0,1,.32,2.32,4.89,4.89,0,0,1-.49,1.92,3.59,3.59,0,0,1-1.93,1.86A2,2,0,0,1,89.88,213.52Z"
            style="fill:#455a64"
          ></path>
        </g>
      </svg>