<svg width="150" height="50" viewBox="0 0 150 50" fill="none" xmlns="http://www.w3.org/2000/svg">
<path d="M23.8946 44.3924C34.3365 41.9238 40.8029 31.4454 38.3379 20.9887C35.8728 10.5319 25.4092 4.05626 14.9674 6.52484C4.52551 8.99343 -1.94098 19.4719 0.524099 29.9286C2.98918 40.3853 13.4527 46.861 23.8946 44.3924Z" fill="#5367FF"/>
<path d="M38.3377 20.9891C37.9862 19.4941 37.4698 18.0816 36.8144 16.7604L36.8101 16.7647L24.5758 28.0906C23.812 28.799 22.675 28.9207 21.7766 28.3949L16.5774 25.3439C15.7354 24.8528 14.6808 24.9267 13.917 25.5308C10.6968 28.0819 2.45091 34.6141 2.33373 34.7097C6.40024 42.2633 15.1539 46.4616 23.8945 44.3928C34.3363 41.9243 40.8028 31.4458 38.3377 20.9891Z" fill="#00F3BB"/>
<path d="M61.135 35.5503C58.066 35.5503 55.5795 34.598 53.6755 32.6934C51.7715 30.7888 50.8196 28.3965 50.8196 25.5164V25.4607C50.8196 22.6735 51.7905 20.2951 53.7323 18.3255C55.6742 16.3559 58.1228 15.3711 61.0782 15.3711C62.7454 15.3711 64.1662 15.5894 65.3408 16.0261C66.5154 16.4627 67.6426 17.127 68.7224 18.0189L66.5059 20.611C65.6723 19.9049 64.834 19.38 63.991 19.0362C63.1479 18.6925 62.1296 18.5206 60.9361 18.5206C59.1174 18.5206 57.5876 19.1942 56.3467 20.5413C55.1058 21.8885 54.4854 23.5096 54.4854 25.4049V25.4607C54.4854 27.486 55.1106 29.1537 56.3609 30.4637C57.6113 31.7736 59.2405 32.4286 61.2487 32.4286C63.1053 32.4286 64.7061 31.9362 66.0512 30.9514V27.3002H60.9645V24.3179H69.4329V32.5122C67.0269 34.5376 64.261 35.5503 61.135 35.5503Z" fill="#44475B"/>
<path d="M73.9878 35.215V20.4987H77.4262V23.8155C78.4872 21.307 80.2585 20.1085 82.7403 20.22V23.7876H82.5413C80.9879 23.7876 79.747 24.2846 78.8187 25.2787C77.8904 26.2728 77.4262 27.7175 77.4262 29.6128V35.215H73.9878Z" fill="#44475B"/>
<path fill-rule="evenodd" clip-rule="evenodd" d="M87.0679 33.3349C88.5835 34.8121 90.4779 35.5507 92.7513 35.5507C95.0437 35.5507 96.9571 34.8028 98.4916 33.307C100.026 31.8112 100.793 30.0042 100.793 27.886V27.8302C100.793 25.712 100.031 23.9096 98.5058 22.4231C96.9808 20.9366 95.0816 20.1934 92.8082 20.1934C90.5348 20.1934 88.6308 20.9412 87.0963 22.437C85.5618 23.9328 84.7945 25.7491 84.7945 27.886V27.9417C84.7945 30.06 85.5523 31.8577 87.0679 33.3349ZM96.1045 31.2451C95.2709 32.1463 94.1721 32.5969 92.8081 32.5969C91.5009 32.5969 90.4116 32.137 89.5401 31.2173C88.6686 30.2975 88.2329 29.1873 88.2329 27.8866V27.8308C88.2329 26.5116 88.6497 25.4014 89.4833 24.5002C90.3168 23.599 91.4062 23.1484 92.7512 23.1484C94.0774 23.1484 95.1762 23.6083 96.0476 24.528C96.9191 25.4478 97.3548 26.5673 97.3548 27.8866V27.9423C97.3548 29.243 96.938 30.3439 96.1045 31.2451Z" fill="#44475B"/>
<path d="M107.593 35.3249L102.734 20.4971H106.258L109.27 30.5867L112.595 20.4414H115.55L118.875 30.5867L121.944 20.4971H125.411L120.495 35.3249H117.397L114.044 25.2632L110.662 35.3249H107.593Z" fill="#44475B"/>
<path d="M132.182 35.3249L127.323 20.4971H130.847L133.859 30.5867L137.184 20.4414H140.139L143.464 30.5867L146.533 20.4971H150L145.084 35.3249H141.986L138.633 25.2632L135.251 35.3249H132.182Z" fill="#44475B"/>
</svg>
